<svg xmlns="http://www.w3.org/2000/svg" viewBox="0 0 960 600" role="img" aria-labelledby="title desc">
  <title id="title">DAKOLAS application image</title>
  <desc id="desc">Application render showing repair shop, wholesale and distributor use cases.</desc>
  <defs>
    <linearGradient id="bg" x1="0" x2="1" y1="0" y2="1">
      <stop offset="0" stop-color="#f8fbff"/>
      <stop offset="1" stop-color="#eaf4ff"/>
    </linearGradient>
    <filter id="shadow" x="-20%" y="-20%" width="140%" height="140%">
      <feDropShadow dx="0" dy="16" stdDeviation="16" flood-color="#071f45" flood-opacity=".14"/>
    </filter>
  </defs>
  <rect width="960" height="600" fill="url(#bg)"/>
  <rect x="70" y="58" width="820" height="484" rx="28" fill="#fff" stroke="#d9e5f4"/>
  <g filter="url(#shadow)">
    <path d="M210 386c82-132 174-198 276-198 103 0 183 66 240 198" fill="none" stroke="#0756b8" stroke-width="20" stroke-linecap="round"/>
    <circle cx="256" cy="332" r="44" fill="#073b84"/>
    <circle cx="486" cy="188" r="48" fill="#073b84"/>
    <circle cx="704" cy="348" r="44" fill="#073b84"/>
    <rect x="222" y="412" width="156" height="44" rx="22" fill="#eaf4ff"/>
    <rect x="420" y="412" width="156" height="44" rx="22" fill="#eaf4ff"/>
    <rect x="618" y="412" width="156" height="44" rx="22" fill="#eaf4ff"/>
  </g>
  <text x="240" y="441" font-family="Arial, sans-serif" font-size="18" font-weight="800" fill="#073b84">Repair</text>
  <text x="444" y="441" font-family="Arial, sans-serif" font-size="18" font-weight="800" fill="#073b84">Wholesale</text>
  <text x="650" y="441" font-family="Arial, sans-serif" font-size="18" font-weight="800" fill="#073b84">Distributor</text>
  <text x="118" y="112" font-family="Arial, sans-serif" font-size="24" font-weight="800" fill="#073b84">Application Scenarios</text>
  <text x="118" y="144" font-family="Arial, sans-serif" font-size="17" fill="#5e6b7e">Repair shops, wholesalers and distributors worldwide</text>
</svg>
