<svg xmlns="http://www.w3.org/2000/svg" viewBox="0 0 960 600" role="img" aria-labelledby="title desc">
  <title id="title">DAKOLAS quality control image</title>
  <desc id="desc">Quality control render showing testing equipment and inspection checklist.</desc>
  <defs>
    <linearGradient id="bg" x1="0" x2="1" y1="0" y2="1">
      <stop offset="0" stop-color="#f8fbff"/>
      <stop offset="1" stop-color="#eaf4ff"/>
    </linearGradient>
    <filter id="shadow" x="-20%" y="-20%" width="140%" height="140%">
      <feDropShadow dx="0" dy="16" stdDeviation="16" flood-color="#071f45" flood-opacity=".13"/>
    </filter>
  </defs>
  <rect width="960" height="600" fill="url(#bg)"/>
  <rect x="70" y="58" width="820" height="484" rx="28" fill="#fff" stroke="#d9e5f4"/>
  <g filter="url(#shadow)">
    <rect x="140" y="148" width="274" height="226" rx="20" fill="#071f45"/>
    <rect x="174" y="184" width="206" height="98" rx="12" fill="#eaf4ff"/>
    <path d="M188 330h178" stroke="#0756b8" stroke-width="18" stroke-linecap="round"/>
    <rect x="500" y="134" width="250" height="310" rx="22" fill="#f6fbff" stroke="#b9cee8"/>
    <path d="M548 210h128M548 284h152M548 358h106" stroke="#0756b8" stroke-width="14" stroke-linecap="round"/>
    <circle cx="704" cy="206" r="24" fill="#25d366"/>
    <circle cx="730" cy="280" r="24" fill="#25d366"/>
    <circle cx="686" cy="354" r="24" fill="#25d366"/>
  </g>
  <path d="m692 206 9 9 18-23M718 280l9 9 18-23M674 354l9 9 18-23" fill="none" stroke="#fff" stroke-width="7" stroke-linecap="round" stroke-linejoin="round"/>
  <text x="118" y="112" font-family="Arial, sans-serif" font-size="24" font-weight="800" fill="#073b84">Quality Control</text>
  <text x="118" y="144" font-family="Arial, sans-serif" font-size="17" fill="#5e6b7e">Display, touch, brightness and capacity checks</text>
</svg>
